<?xml version="1.0" encoding="UTF-8" standalone="no"?>
<svg
   width="16"
   height="16"
   version="1.1"
   id="svg1"
   sodipodi:docname="GraphEdit.svg"
   inkscape:version="1.4.3 (0d15f75042, 2025-12-25)"
   xmlns:inkscape="http://www.inkscape.org/namespaces/inkscape"
   xmlns:sodipodi="http://sodipodi.sourceforge.net/DTD/sodipodi-0.dtd"
   xmlns="http://www.w3.org/2000/svg"
   xmlns:svg="http://www.w3.org/2000/svg">
  <defs
     id="defs1" />
  <sodipodi:namedview
     id="namedview1"
     pagecolor="#ffffff"
     bordercolor="#000000"
     borderopacity="0.25"
     inkscape:showpageshadow="2"
     inkscape:pageopacity="0.0"
     inkscape:pagecheckerboard="0"
     inkscape:deskcolor="#d1d1d1"
     inkscape:zoom="32"
     inkscape:cx="8.1875"
     inkscape:cy="8.09375"
     inkscape:window-width="3360"
     inkscape:window-height="1357"
     inkscape:window-x="0"
     inkscape:window-y="0"
     inkscape:window-maximized="1"
     inkscape:current-layer="svg1" />
  <path
     fill="#8eef97"
     d="m 11,1 c -0.552285,0 -1,0.4477153 -1,1 v 3 c 0,0.5522847 0.447715,1 1,1 h 3 c 0.552285,0 1,-0.4477153 1,-1 V 2 C 15,1.4477153 14.552285,1 14,1 Z M 5.832,5.4005 c 0,0.337098 -1.54e-5,0.6489221 0,1 v 1.117 L 9.268,6 C 9.0924456,5.6959665 9.0000154,5.3510779 9,5 V 3.883 Z m 0,3.082 v 1.117 c -1.54e-5,0.351078 0,0.648536 0,1 L 9,12.117 V 11 c 1.54e-5,-0.351078 0.092446,-0.695967 0.268,-1 z M 11,10 c -0.552285,0 -1,0.447715 -1,1 v 3 c 0,0.552285 0.447715,1 1,1 h 3 c 0.552285,0 1,-0.447715 1,-1 v -3 c 0,-0.552285 -0.447715,-1 -1,-1 z"
     id="path1"
     style="fill:#e0e0e0;fill-opacity:1"
     sodipodi:nodetypes="sssssssssccccccccccccccsssssssss" />
  <path
     fill="#e0e0e0"
     d="M 2,1 C 1.446,1 1,1.446 1,2 V 4 H 5 V 2 C 5,1.446 4.554,1 4,1 Z M 1,5 v 7 l 2,3 2,-3 V 5 Z m 1,1 h 1 v 5 H 2 Z"
     id="path1-5" />
</svg>
