<?xml version="1.0" encoding="UTF-8" standalone="no"?>
<svg
   width="16"
   height="16"
   version="1.1"
   id="svg1"
   sodipodi:docname="Label.svg"
   inkscape:version="1.4.3 (0d15f75042, 2025-12-25)"
   xmlns:inkscape="http://www.inkscape.org/namespaces/inkscape"
   xmlns:sodipodi="http://sodipodi.sourceforge.net/DTD/sodipodi-0.dtd"
   xmlns="http://www.w3.org/2000/svg"
   xmlns:svg="http://www.w3.org/2000/svg">
  <defs
     id="defs1" />
  <sodipodi:namedview
     id="namedview1"
     pagecolor="#ffffff"
     bordercolor="#000000"
     borderopacity="0.25"
     inkscape:showpageshadow="2"
     inkscape:pageopacity="0.0"
     inkscape:pagecheckerboard="0"
     inkscape:deskcolor="#d1d1d1"
     inkscape:zoom="71.375"
     inkscape:cx="8"
     inkscape:cy="8"
     inkscape:window-width="3360"
     inkscape:window-height="1357"
     inkscape:window-x="0"
     inkscape:window-y="0"
     inkscape:window-maximized="1"
     inkscape:current-layer="svg1" />
  <path
     fill="#8eef97"
     d="M6 3a1 1 0 0 0-.707.293l-4 4a1 1 0 0 0 0 1.414l4 4A1 1 0 0 0 6 13h8a1 1 0 0 0 1-1V4a1 1 0 0 0-1-1H6zM5 7a1 1 0 0 1 0 2 1 1 0 0 1 0-2z"
     id="path1"
     style="fill:#e0e0e0;fill-opacity:1" />
</svg>
